<svg xmlns="http://www.w3.org/2000/svg" width="422.31" height="158.02" viewBox="0 0 422.31 158.02"><title>impressum</title><path d="M14.48,2l4,29,14-29h5.71L32,37.5H27.61l2.44-14.06,2.71-13.21L19.12,37.5H15.77L11.57,9.67,9.5,23.88,7.15,37.5H2.78L8.94,2Z"/><path d="M52.61,37.5a6.21,6.21,0,0,1-.12-1.44l.1-1.44Q49.78,38,46.53,38a6.16,6.16,0,0,1-4.94-2.06A7.4,7.4,0,0,1,40,30.49a8.73,8.73,0,0,1,3.38-6.57,12.77,12.77,0,0,1,8.17-2.47h2.93l.42-2.81q.44-4.37-3.3-4.37a4.66,4.66,0,0,0-3.21,1.14,5.08,5.08,0,0,0-1.62,3l-4.17,0a8.09,8.09,0,0,1,3-5.62,9.49,9.49,0,0,1,6.41-2.22,7.12,7.12,0,0,1,5.48,2.19q1.92,2.14,1.55,6l-2.15,13a13.68,13.68,0,0,0-.17,2.66l.15,2.69,0,.42Zm-5.2-3.39A6.68,6.68,0,0,0,52.88,31L54,24.68l-1.93,0a10.19,10.19,0,0,0-4.42.92,5.51,5.51,0,0,0-2.72,2.54,6.09,6.09,0,0,0-.55,3.53Q44.68,34.11,47.41,34.11Z"/><path d="M77.2,15.11a9.28,9.28,0,0,0-1.88-.22q-3.2,0-5.27,3.69L66.77,37.5H62.55l4.59-26.42,4.08,0-.59,2.71q2.32-3.3,5.22-3.22a8.94,8.94,0,0,1,1.81.37Z"/><path d="M86.5,30.88l7.93-19.8h4.44L87.13,37.5H84L80.42,11.08h4.15Z"/><path d="M103.54,37.5H99.32l4.59-26.42h4.22Zm1.34-33.4a3,3,0,0,1,.68-1.83,2.25,2.25,0,0,1,1.73-.83,2.09,2.09,0,0,1,1.73.71A2.53,2.53,0,0,1,109.67,4a3,3,0,0,1-.7,1.84,2.23,2.23,0,0,1-1.75.79A2.05,2.05,0,0,1,105.49,6,2.54,2.54,0,0,1,104.88,4.1Z"/><path d="M118.87,11.06l-.56,2.88a8.3,8.3,0,0,1,6.54-3.34,5.11,5.11,0,0,1,4,1.71,7.53,7.53,0,0,1,1.67,4.59,20.19,20.19,0,0,1-.07,3.3L127.56,37.5h-4.2l2.91-17.38.1-1.93q0-3.74-3.08-3.81-2.52-.07-4.69,2.86l-.73,1L114.55,37.5h-4.22l4.59-26.42Z"/><path d="M163.77,28.2H152.15l-4.3,9.3h-4.64L160.47,2h3.76l5,35.55h-4.32ZM154,24.37h9.35L161.43,8.25Z"/><path d="M178.15,37.5h-4.22L180.44,0h4.22Z"/><path d="M194.8,38a7.67,7.67,0,0,1-6.64-3.2q-2.2-3.15-1.61-8.59l.32-2.61q.76-6.15,3.75-9.63a9.24,9.24,0,0,1,7.6-3.36,6.91,6.91,0,0,1,5.65,2.58q1.89,2.48,1.79,7l-.22,2.93-.37,2.51-14.16,0a22.46,22.46,0,0,0-.29,3.44,6.05,6.05,0,0,0,1.22,3.87,4.18,4.18,0,0,0,3.34,1.43,7,7,0,0,0,3.09-.62,11,11,0,0,0,3.21-2.36l2,2.76a9.24,9.24,0,0,1-3.86,3A11.82,11.82,0,0,1,194.8,38Zm3.15-23.71q-4.32-.19-6.05,5.22l-.66,2.37,10.13,0,.12-.63a18.11,18.11,0,0,0,.15-2.34Q201.54,14.48,197.95,14.28Z"/><path d="M218.09,20.68,224,11.08h5.1L219.9,24.37l5,13.13h-4.61l-3-9.86-6.08,9.86h-5.1l9.4-13.57-4.83-12.84h4.61Z"/><path d="M243,37.5a6.21,6.21,0,0,1-.12-1.44l.1-1.44Q240.14,38,236.89,38a6.16,6.16,0,0,1-4.94-2.06,7.4,7.4,0,0,1-1.57-5.46,8.73,8.73,0,0,1,3.38-6.57,12.77,12.77,0,0,1,8.17-2.47h2.93l.42-2.81q.44-4.37-3.3-4.37a4.66,4.66,0,0,0-3.21,1.14,5.08,5.08,0,0,0-1.62,3l-4.17,0a8.09,8.09,0,0,1,3-5.62,9.49,9.49,0,0,1,6.41-2.22,7.12,7.12,0,0,1,5.48,2.19q1.92,2.14,1.55,6l-2.15,13a13.68,13.68,0,0,0-.17,2.66l.15,2.69,0,.42Zm-5.2-3.39a6.68,6.68,0,0,0,5.47-3.1l1.1-6.32-1.93,0a10.19,10.19,0,0,0-4.42.92,5.51,5.51,0,0,0-2.72,2.54,6.09,6.09,0,0,0-.55,3.53Q235,34.11,237.77,34.11Z"/><path d="M261.45,11.06l-.56,2.88a8.3,8.3,0,0,1,6.54-3.34,5.11,5.11,0,0,1,4,1.71,7.53,7.53,0,0,1,1.67,4.59,20.19,20.19,0,0,1-.07,3.3L270.14,37.5h-4.2l2.91-17.38.1-1.93q0-3.74-3.08-3.81-2.52-.07-4.69,2.86l-.73,1L257.13,37.5h-4.22l4.59-26.42Z"/><path d="M288.6,10.62A6.1,6.1,0,0,1,294,13.7L296.56,0h4.22l-6.49,37.5h-3.83l.46-2.83A7.44,7.44,0,0,1,284.64,38a6,6,0,0,1-5.09-2.56q-1.79-2.51-1.79-7.2a39.15,39.15,0,0,1,.56-5.76,22.48,22.48,0,0,1,1.73-6.08Q282.84,10.45,288.6,10.62ZM282,29.27q.12,4.86,4,4.93a4.83,4.83,0,0,0,2.66-.7A8.88,8.88,0,0,0,291.21,31l2.29-13.38a4.43,4.43,0,0,0-4.08-3.17q-5.79-.29-7,8.5A38.67,38.67,0,0,0,282,29.27Z"/><path d="M310.79,38a7.67,7.67,0,0,1-6.64-3.2q-2.2-3.15-1.61-8.59l.32-2.61q.76-6.15,3.75-9.63a9.24,9.24,0,0,1,7.6-3.36,6.91,6.91,0,0,1,5.65,2.58q1.89,2.48,1.79,7l-.22,2.93-.37,2.51-14.16,0a22.46,22.46,0,0,0-.29,3.44,6.05,6.05,0,0,0,1.22,3.87,4.18,4.18,0,0,0,3.34,1.43,7,7,0,0,0,3.09-.62,11,11,0,0,0,3.21-2.36l2,2.76a9.24,9.24,0,0,1-3.86,3A11.82,11.82,0,0,1,310.79,38Zm3.15-23.71q-4.32-.19-6.05,5.22l-.66,2.37,10.13,0,.12-.63a18.11,18.11,0,0,0,.15-2.34Q317.53,14.48,313.94,14.28Z"/><path d="M338.53,15.11a9.28,9.28,0,0,0-1.88-.22q-3.2,0-5.27,3.69L328.1,37.5h-4.22l4.59-26.42,4.08,0L332,13.77q2.32-3.3,5.22-3.22a8.94,8.94,0,0,1,1.81.37Z"/><path d="M363.84,23.12h-6.13L355.2,37.5h-4.37L357,2l9.4,0q4.59.15,6.88,3t1.83,7.52A11.53,11.53,0,0,1,373,18.31a12,12,0,0,1-4.91,3.86l4.13,15,0,.32h-4.69Zm-5.47-3.83,5.05,0a7.4,7.4,0,0,0,4.09-1.25,7.06,7.06,0,0,0,2.62-3.39,10,10,0,0,0,.59-4.76A4.59,4.59,0,0,0,369.4,7a4.7,4.7,0,0,0-3.14-1.19l-5.54,0Z"/><path d="M389.89,35.18A7.79,7.79,0,0,1,383.57,38,5.18,5.18,0,0,1,379.26,36a9.15,9.15,0,0,1-1.5-5.59l.12-2.22,2.86-17.07h4.17l-2.83,17.16L382,30a5.23,5.23,0,0,0,.57,2.95,2.29,2.29,0,0,0,2,1.21q3.54.17,5.81-3.5l3.37-19.6H398L393.41,37.5h-4Zm-7-31.09a2.67,2.67,0,0,1,.73-1.86,2.64,2.64,0,0,1,1.88-.79,2.5,2.5,0,0,1,1.87.69A2.39,2.39,0,0,1,388.11,4a2.5,2.5,0,0,1-.73,1.85,2.72,2.72,0,0,1-1.88.78,2.47,2.47,0,0,1-1.87-.68A2.47,2.47,0,0,1,382.91,4.09Zm10.18,0a2.72,2.72,0,0,1,.73-1.87,2.59,2.59,0,0,1,1.86-.8,2.53,2.53,0,0,1,1.9.69A2.44,2.44,0,0,1,398.29,4a2.49,2.49,0,0,1-.73,1.86,2.75,2.75,0,0,1-1.88.77A2.52,2.52,0,0,1,393.81,6,2.35,2.35,0,0,1,393.09,4.14Z"/><path d="M404.44,37.5h-4.22L406.74,0H411Z"/><path d="M415.8,37.5h-4.22L418.09,0h4.22Z"/><path d="M20.56,88.2H8.94l-4.3,9.3H0L17.26,62H21L26,97.5H21.66Zm-9.81-3.83h9.35L18.21,68.25Z"/><path d="M40.92,98a6.15,6.15,0,0,1-5.74-3.64l-.9,3.15H30.4L36.91,60h4.2L38.45,74a7.42,7.42,0,0,1,6.3-3.39,6,6,0,0,1,5.19,2.53q1.75,2.48,1.65,7.21A52.51,52.51,0,0,1,51,86.17a23.78,23.78,0,0,1-1.44,5.52Q46.9,98.16,40.92,98Zm6.52-18.65a6.17,6.17,0,0,0-1.12-3.74,3.75,3.75,0,0,0-2.91-1.22Q40.31,74.31,38,78L35.82,90.64Q37,94.08,40.06,94.2a5.3,5.3,0,0,0,4.59-2q1.73-2.14,2.28-6.76A51.71,51.71,0,0,0,47.44,79.34Z"/><path d="M65.77,64.69l-1.12,6.4h3.88l-.61,3.49H64.06L61.28,91l0,1q-.1,2.08,1.49,2.08a7.29,7.29,0,0,0,1.76-.24l-.37,3.69a7.38,7.38,0,0,1-2.76.44A3.67,3.67,0,0,1,58,96.11a8.47,8.47,0,0,1-.83-5.18l2.69-16.36H55.93l.63-3.49h3.88l1.12-6.4Z"/><path d="M82.89,90.54q.32-2.32-2.59-3.86L77,85a9.71,9.71,0,0,1-3.55-3,6,6,0,0,1-.89-3.69,7.64,7.64,0,0,1,2.73-5.54,9,9,0,0,1,6.2-2.15,7.35,7.35,0,0,1,5.54,2.33,7.7,7.7,0,0,1,1.86,5.7H84.74a4.6,4.6,0,0,0-.88-3.11,3.29,3.29,0,0,0-2.59-1.18,4.55,4.55,0,0,0-3.1,1.06,4.34,4.34,0,0,0-1.46,2.75q-.29,2,1.93,3.25l4.13,2.1q4.57,2.54,4.32,6.74a7.71,7.71,0,0,1-2.88,5.73,9.47,9.47,0,0,1-6.42,2,8,8,0,0,1-5.91-2.38,7.79,7.79,0,0,1-2.12-6l4.25,0a4.92,4.92,0,0,0,1,3.48,3.77,3.77,0,0,0,3,1.18,5.34,5.34,0,0,0,3.36-1A3.94,3.94,0,0,0,82.89,90.54Z"/><path d="M102.69,64.69l-1.12,6.4h3.88l-.61,3.49H101L98.19,91l0,1q-.1,2.08,1.49,2.08a7.29,7.29,0,0,0,1.76-.24L101,97.5a7.38,7.38,0,0,1-2.76.44,3.67,3.67,0,0,1-3.34-1.83,8.47,8.47,0,0,1-.83-5.18l2.69-16.36H92.85l.63-3.49h3.88l1.12-6.4Z"/><path d="M120.68,75.11a9.28,9.28,0,0,0-1.88-.22q-3.2,0-5.27,3.69L110.25,97.5H106l4.59-26.42,4.08,0-.59,2.71q2.32-3.3,5.22-3.22a8.94,8.94,0,0,1,1.81.37Z"/><path d="M121.46,92.37a2.65,2.65,0,0,1,2,.73,2.53,2.53,0,0,1,.76,2,2.64,2.64,0,0,1-.81,1.94,2.9,2.9,0,0,1-2,.79,2.46,2.46,0,0,1-2.69-2.59,2.73,2.73,0,0,1,2.71-2.83Z"/><path d="M160,85.56h3.83l-.63,3.69h-3.83l-1.44,8.25h-4.22l1.44-8.25h-13l.51-2.91L159.55,62h4.57Zm-12.45,0h8.23l3.08-16.94Z"/><path d="M14.33,157.5H10.08l5.22-30-7.86,3.32.78-4.35,11.43-4.74h.76Z"/><path d="M45.58,157.5H26.27l.54-3.44,12.74-14.4a23.08,23.08,0,0,0,3.59-5.25,10.17,10.17,0,0,0,.93-5.1,5.2,5.2,0,0,0-1.12-3,3.37,3.37,0,0,0-2.51-1.18A5.3,5.3,0,0,0,36.07,127a10,10,0,0,0-2.14,5.4l-4.15,0a12.93,12.93,0,0,1,3.45-8,9.58,9.58,0,0,1,7.41-3,7.55,7.55,0,0,1,6,2.71,8.81,8.81,0,0,1,1.77,6.64q-.44,4.69-4.88,10.11L41.77,143,32,153.81H46.17Z"/><path d="M68.19,145.56H72l-.63,3.69H67.55l-1.44,8.25H61.89l1.44-8.25h-13l.51-2.91L67.72,122h4.57Zm-12.45,0H64L67,128.62Z"/><path d="M96.92,131a10.36,10.36,0,0,1-5.64,8.33A8,8,0,0,1,94,142.86a10.29,10.29,0,0,1,.68,4.82,11.65,11.65,0,0,1-3.26,7.47A9.4,9.4,0,0,1,84.18,158a7.54,7.54,0,0,1-6.09-2.91,9.62,9.62,0,0,1-1.82-7,10.74,10.74,0,0,1,6.32-9,7.45,7.45,0,0,1-2.26-3.33,10.28,10.28,0,0,1-.5-4.28,11.37,11.37,0,0,1,3-7.26,8.61,8.61,0,0,1,6.75-2.75,6.94,6.94,0,0,1,5.64,2.76A9.57,9.57,0,0,1,96.92,131Zm-6.45,16.6a7.72,7.72,0,0,0-.81-4.75,3.53,3.53,0,0,0-3.1-1.82h0a5,5,0,0,0-3.41,1.23,7.3,7.3,0,0,0-2.17,3.52,10.73,10.73,0,0,0-.45,4.41,5.1,5.1,0,0,0,1.25,3,3.63,3.63,0,0,0,2.71,1.11,5,5,0,0,0,4.06-1.75A8.45,8.45,0,0,0,90.48,147.61Zm2.22-18.46a5.18,5.18,0,0,0-1.07-2.89,3,3,0,0,0-2.32-1.11,4.29,4.29,0,0,0-3.61,1.78A8.41,8.41,0,0,0,84,131.5a7.19,7.19,0,0,0,.71,4.27,3.08,3.08,0,0,0,2.71,1.61A4.39,4.39,0,0,0,91.48,135,9.16,9.16,0,0,0,92.7,129.16Z"/><path d="M115.33,142.31q-3,3.37-6.18,3.3a6,6,0,0,1-3.64-1.17,7.14,7.14,0,0,1-2.36-3.32,13.9,13.9,0,0,1-.87-4.66,19.38,19.38,0,0,1,1.22-7.54,12.46,12.46,0,0,1,3.81-5.62,8.33,8.33,0,0,1,5.59-1.83,6.65,6.65,0,0,1,5.71,3.11q2,3,1.9,8.26a45.87,45.87,0,0,1-.93,7.76q-1.61,8.4-5.43,12.5a13.86,13.86,0,0,1-9.8,4.42l-1.51,0,.37-3.81h1A9.72,9.72,0,0,0,111,151Q113.72,148.37,115.33,142.31Zm-5.22-.42q3.2.15,5.86-4.74a34.45,34.45,0,0,0,.37-5.66,10.38,10.38,0,0,0-1.07-4.63,3,3,0,0,0-2.59-1.67q-3.1-.15-4.86,3.61a14.78,14.78,0,0,0-1.27,4.88l-.1,1.51a10,10,0,0,0,.87,4.86A3.1,3.1,0,0,0,110.11,141.9Z"/><path d="M135.11,157.5,141.26,122l9.55,0q4.3.12,6.41,2.54t1.77,6.71q-.44,5-5.81,7.67a5.63,5.63,0,0,1,2.92,3.05,10.39,10.39,0,0,1,.72,5.1,11.31,11.31,0,0,1-3.41,7.64,10.71,10.71,0,0,1-7.7,2.81Zm7.25-16.63-2.22,12.79,5.66,0a6.18,6.18,0,0,0,5.18-2.58,9.08,9.08,0,0,0,1.56-6.29q-.34-3.76-3.86-4Zm.63-3.76,5.35,0A6.11,6.11,0,0,0,154.1,133a8.38,8.38,0,0,0,.46-4q-.39-3.11-3.86-3.25l-5.74,0Z"/><path d="M171,158a7.67,7.67,0,0,1-6.64-3.2q-2.2-3.15-1.61-8.59l.32-2.61q.76-6.15,3.75-9.63a9.24,9.24,0,0,1,7.6-3.36,6.91,6.91,0,0,1,5.65,2.58q1.89,2.48,1.79,7l-.22,2.93-.37,2.51-14.16,0a22.46,22.46,0,0,0-.29,3.44,6.05,6.05,0,0,0,1.22,3.87,4.18,4.18,0,0,0,3.34,1.43,7,7,0,0,0,3.09-.62,11,11,0,0,0,3.21-2.36l2,2.76a9.24,9.24,0,0,1-3.86,3A11.82,11.82,0,0,1,171,158Zm3.15-23.71q-4.32-.19-6.05,5.22l-.66,2.37,10.13,0,.12-.63a18.11,18.11,0,0,0,.15-2.34Q177.78,134.48,174.19,134.28Z"/><path d="M198.78,135.11a9.28,9.28,0,0,0-1.88-.22q-3.2,0-5.27,3.69l-3.27,18.92h-4.22l4.59-26.42,4.08,0-.59,2.71q2.32-3.3,5.22-3.22a8.94,8.94,0,0,1,1.81.37Z"/><path d="M203.69,157.5h-4.22L206,120h4.22Z"/><path d="M215,157.5h-4.22l4.59-26.42h4.22Zm1.34-33.4a3,3,0,0,1,.68-1.83,2.25,2.25,0,0,1,1.73-.83,2.09,2.09,0,0,1,1.73.71,2.53,2.53,0,0,1,.63,1.88,3,3,0,0,1-.7,1.84,2.23,2.23,0,0,1-1.75.79A2.05,2.05,0,0,1,217,126,2.54,2.54,0,0,1,216.38,124.1Z"/><path d="M230.37,131.06l-.56,2.88a8.3,8.3,0,0,1,6.54-3.34,5.11,5.11,0,0,1,4,1.71,7.53,7.53,0,0,1,1.67,4.59,20.19,20.19,0,0,1-.07,3.3l-2.88,17.31h-4.2l2.91-17.38.1-1.93q0-3.74-3.08-3.81-2.52-.07-4.69,2.86l-.73,1L226,157.5h-4.22l4.59-26.42Z"/></svg>