<svg xmlns="http://www.w3.org/2000/svg" width="423.49" height="157.99" viewBox="0 0 423.49 157.99"><title>impressum</title><path d="M8.54,2l9.28,29L27.1,2h5.76V37.5H28.39V23.66l.42-13.87L19.51,37.5H16.09L6.84,9.89l.42,13.77V37.5H2.78V2Z" style="fill:#242124"/><path d="M53.54,37.5A9.48,9.48,0,0,1,53,34.62,6.86,6.86,0,0,1,47.12,38a7.57,7.57,0,0,1-5.6-2,7.68,7.68,0,0,1-2-5.68,8,8,0,0,1,2.73-6.4,11.25,11.25,0,0,1,7.5-2.42h3.17V18.68a4.52,4.52,0,0,0-1-3.37,4.49,4.49,0,0,0-3.2-1,4.42,4.42,0,0,0-3.17,1.16,3.88,3.88,0,0,0-1.22,2.94H39.94a7,7,0,0,1,1.2-3.87,8.34,8.34,0,0,1,3.22-2.89,9.67,9.67,0,0,1,4.52-1q4.05,0,6.16,2a7.88,7.88,0,0,1,2.16,5.87V31.81a16.08,16.08,0,0,0,.83,5.3v.39Zm-5.76-3.44a5.73,5.73,0,0,0,3-.88,5.42,5.42,0,0,0,2.1-2.2v-6.3H50.46a8.18,8.18,0,0,0-4.86,1.38,4.38,4.38,0,0,0-1.78,3.72,4.83,4.83,0,0,0,.9,3.26A3.92,3.92,0,0,0,47.78,34.06Z" style="fill:#242124"/><path d="M74.8,15.14a10.53,10.53,0,0,0-2-.17q-3.32,0-4.64,3.64V37.5H63.89V11.08h4.2l.07,2.69a5.38,5.38,0,0,1,4.91-3.17,3.81,3.81,0,0,1,1.71.34Z" style="fill:#242124"/><path d="M87,30.93l5-19.85h4.39L88.6,37.5H85.38L77.44,11.08h4.39Z" style="fill:#242124"/><path d="M105.93,4.08a2.76,2.76,0,0,1-.61,1.83,2.28,2.28,0,0,1-1.86.73,2.25,2.25,0,0,1-1.83-.73A2.76,2.76,0,0,1,101,4.08a2.86,2.86,0,0,1,.61-1.86,2.59,2.59,0,0,1,3.67,0A2.84,2.84,0,0,1,105.93,4.08Zm-.34,33.42h-4.32V11.08h4.32Z" style="fill:#242124"/><path d="M116.46,11.08l.12,2.86A7.71,7.71,0,0,1,123,10.6q7,0,7.1,9.35V37.5h-4.3V20.14a7.2,7.2,0,0,0-1-4.41,3.74,3.74,0,0,0-3.11-1.31,4.39,4.39,0,0,0-2.89,1.07,7.74,7.74,0,0,0-2.06,2.81V37.5h-4.32V11.08Z" style="fill:#242124"/><path d="M165.21,28.2h-12l-2.76,9.3h-4.59L157.3,2h3.83L172.61,37.5H168Zm-10.84-3.83h9.69L159.2,8.2Z" style="fill:#242124"/><path d="M181.49,37.5h-4.32V0h4.32Z" style="fill:#242124"/><path d="M197.73,38q-4.93,0-7.57-2.94t-2.69-8.63v-3.2q0-5.91,2.58-9.27a8.55,8.55,0,0,1,7.19-3.36q4.64,0,6.93,3t2.34,9.2v2.83H191.77v.61q0,4.25,1.6,6.18A5.64,5.64,0,0,0,198,34.3a7.46,7.46,0,0,0,3.36-.72,8.34,8.34,0,0,0,2.72-2.28L206.3,34Q203.49,38,197.73,38Zm-.49-23.68a4.53,4.53,0,0,0-4,1.84,10.94,10.94,0,0,0-1.46,5.73h10.4v-.59q-.17-3.76-1.35-5.37A4.18,4.18,0,0,0,197.24,14.31Z" style="fill:#242124"/><path d="M219.34,20.73l4.52-9.64h5l-7.18,13.06L229,37.5h-5l-4.66-9.89-4.69,9.89h-5l7.35-13.35-7.15-13.06h5Z" style="fill:#242124"/><path d="M247.24,37.5a9.47,9.47,0,0,1-.56-2.88A6.86,6.86,0,0,1,240.82,38a7.58,7.58,0,0,1-5.6-2,7.68,7.68,0,0,1-2-5.68,8,8,0,0,1,2.73-6.4,11.25,11.25,0,0,1,7.5-2.42h3.17V18.68a4.52,4.52,0,0,0-1-3.37,4.49,4.49,0,0,0-3.2-1,4.42,4.42,0,0,0-3.17,1.16A3.88,3.88,0,0,0,238,18.41h-4.32a7,7,0,0,1,1.2-3.87,8.33,8.33,0,0,1,3.22-2.89,9.67,9.67,0,0,1,4.52-1q4.05,0,6.16,2a7.89,7.89,0,0,1,2.16,5.87V31.81a16.07,16.07,0,0,0,.83,5.3v.39Zm-5.76-3.44a5.73,5.73,0,0,0,3-.88,5.42,5.42,0,0,0,2.1-2.2v-6.3h-2.44a8.18,8.18,0,0,0-4.86,1.38,4.38,4.38,0,0,0-1.78,3.72,4.83,4.83,0,0,0,.9,3.26A3.92,3.92,0,0,0,241.48,34.06Z" style="fill:#242124"/><path d="M261.67,11.08l.12,2.86a7.71,7.71,0,0,1,6.42-3.34q7,0,7.1,9.35V37.5H271V20.14a7.2,7.2,0,0,0-1-4.41,3.74,3.74,0,0,0-3.11-1.31A4.38,4.38,0,0,0,264,15.5a7.73,7.73,0,0,0-2.06,2.81V37.5h-4.32V11.08Z" style="fill:#242124"/><path d="M280.88,23.1q0-6.1,2.28-9.3a7.57,7.57,0,0,1,6.56-3.2,6.78,6.78,0,0,1,5.91,3.08V0H300V37.5h-4l-.22-2.83A6.8,6.8,0,0,1,289.7,38a7.53,7.53,0,0,1-6.43-3.19q-2.33-3.19-2.38-9Zm4.32,2.45q0,4.44,1.32,6.52a4.7,4.7,0,0,0,4.3,2.08,5.11,5.11,0,0,0,4.81-3.24V17.6a5.2,5.2,0,0,0-4.79-3.17,4.7,4.7,0,0,0-4.3,2.08q-1.32,2.08-1.34,6.4Z" style="fill:#242124"/><path d="M316,38q-4.93,0-7.57-2.94t-2.69-8.63v-3.2q0-5.91,2.58-9.27a8.55,8.55,0,0,1,7.19-3.36q4.64,0,6.93,3t2.34,9.2v2.83H310.08v.61q0,4.25,1.6,6.18a5.64,5.64,0,0,0,4.6,1.93,7.46,7.46,0,0,0,3.36-.72,8.34,8.34,0,0,0,2.72-2.28L324.61,34Q321.8,38,316,38Zm-.49-23.68a4.53,4.53,0,0,0-4,1.84,10.93,10.93,0,0,0-1.46,5.73h10.4v-.59q-.17-3.76-1.36-5.37A4.17,4.17,0,0,0,315.55,14.31Z" style="fill:#242124"/><path d="M340.92,15.14a10.53,10.53,0,0,0-2-.17q-3.32,0-4.64,3.64V37.5H330V11.08h4.2l.07,2.69a5.38,5.38,0,0,1,4.91-3.17,3.81,3.81,0,0,1,1.71.34Z" style="fill:#242124"/><path d="M368,23.12h-6.25V37.5h-4.49V2h10q5.22,0,7.91,2.72t2.69,8a11.08,11.08,0,0,1-1.45,5.75,9.18,9.18,0,0,1-4.11,3.7l6.88,15.11v.29h-4.81Zm-6.25-3.83h5.42a5.8,5.8,0,0,0,4.48-1.81,6.85,6.85,0,0,0,1.67-4.84q0-6.85-6.2-6.85h-5.37Z" style="fill:#242124"/><path d="M396.68,35.18A7.42,7.42,0,0,1,390.41,38,6.31,6.31,0,0,1,385,35.51q-1.83-2.48-1.86-7.21V11.08h4.3V28q0,6.18,3.71,6.18a5.41,5.41,0,0,0,5.42-3.52V11.08h4.32V37.5h-4.1ZM384.18,4a2.67,2.67,0,0,1,.67-1.85,2.53,2.53,0,0,1,2-.75,2.58,2.58,0,0,1,2,.75A2.65,2.65,0,0,1,389.53,4a2.6,2.6,0,0,1-.68,1.84,2.6,2.6,0,0,1-2,.74,2.56,2.56,0,0,1-2-.74A2.62,2.62,0,0,1,384.18,4Zm10.5,0a2.71,2.71,0,0,1,.67-1.86,2.51,2.51,0,0,1,2-.76,2.55,2.55,0,0,1,2,.76A2.69,2.69,0,0,1,400,4.07a2.6,2.6,0,0,1-.68,1.84,2.6,2.6,0,0,1-2,.74,2.56,2.56,0,0,1-2-.74A2.62,2.62,0,0,1,394.68,4.06Z" style="fill:#242124"/><path d="M412,37.5h-4.32V0H412Z" style="fill:#242124"/><path d="M423.49,37.5h-4.32V0h4.32Z" style="fill:#242124"/><path d="M19.36,88.2h-12L4.59,97.5H0L11.45,62h3.83L26.76,97.5H22.17ZM8.52,84.37h9.69L13.35,68.2Z" style="fill:#242124"/><path d="M50.12,85.56q0,6.18-2.22,9.3A7.42,7.42,0,0,1,41.46,98a6.83,6.83,0,0,1-6.3-3.61l-.22,3.13H31V60h4.3V74a6.79,6.79,0,0,1,6.1-3.39,7.45,7.45,0,0,1,6.52,3.08q2.17,3.08,2.2,9.28Zm-4.3-2.48q0-4.68-1.31-6.67a4.69,4.69,0,0,0-4.24-2q-3.34,0-5,3.61V90.6q1.61,3.56,5,3.56a4.56,4.56,0,0,0,4.2-2q1.27-2,1.29-6.37Z" style="fill:#242124"/><path d="M68.48,90.74a3.19,3.19,0,0,0-1-2.39A15.55,15.55,0,0,0,63.38,86a26.48,26.48,0,0,1-4.92-2.47,7,7,0,0,1-2.14-2.33,6.44,6.44,0,0,1-.71-3.11A6.93,6.93,0,0,1,58,72.73a8.62,8.62,0,0,1,6-2.14,8.59,8.59,0,0,1,6.2,2.25,7.63,7.63,0,0,1,2.34,5.76h-4.3a4.25,4.25,0,0,0-1.2-3A4,4,0,0,0,64,74.31a4.29,4.29,0,0,0-3,1,3.39,3.39,0,0,0-1.09,2.64,2.88,2.88,0,0,0,.79,2.12,14.14,14.14,0,0,0,3.82,2.12q4.81,1.88,6.54,3.68a6.31,6.31,0,0,1,1.73,4.56,7,7,0,0,1-2.37,5.51A9.31,9.31,0,0,1,64.09,98a9.47,9.47,0,0,1-6.69-2.37,7.82,7.82,0,0,1-2.56-6h4.35a4.47,4.47,0,0,0,4.91,4.69,4.89,4.89,0,0,0,3.27-1A3.25,3.25,0,0,0,68.48,90.74Z" style="fill:#242124"/><path d="M84.08,64.69v6.4h4v3.49h-4V91a4.46,4.46,0,0,0,.51,2.37,1.92,1.92,0,0,0,1.76.81,5.46,5.46,0,0,0,1.73-.29l0,3.64A9.5,9.5,0,0,1,85,98a4.54,4.54,0,0,1-3.91-1.83A8.63,8.63,0,0,1,79.79,91V74.58h-4V71.08h4v-6.4Z" style="fill:#242124"/><path d="M104.1,75.14a10.53,10.53,0,0,0-2-.17q-3.32,0-4.64,3.64V97.5H93.19V71.08h4.2l.07,2.69a5.38,5.38,0,0,1,4.91-3.17,3.81,3.81,0,0,1,1.71.34Z" style="fill:#242124"/><path d="M105.69,95.13a2.83,2.83,0,0,1,.7-2,2.65,2.65,0,0,1,2.09-.78,2.73,2.73,0,0,1,2.11.78,2.77,2.77,0,0,1,.72,2,2.62,2.62,0,0,1-.72,1.88,2.78,2.78,0,0,1-2.11.76,2.7,2.7,0,0,1-2.09-.76A2.67,2.67,0,0,1,105.69,95.13Z" style="fill:#242124"/><path d="M146,85.56h4v3.69h-4V97.5h-4.32V89.25H128.25V86.59L141.46,62H146Zm-13,0h8.64V68.67Z" style="fill:#242124"/><path d="M14.67,157.5H10.33V127.4l-7.47,3.34v-4.1L14,121.78h.68Z" style="fill:#242124"/><path d="M46.36,157.5H26.49v-3.25l10.13-13.43a29.48,29.48,0,0,0,3.19-5.09,10.19,10.19,0,0,0,.89-4.21,7.45,7.45,0,0,0-1.32-4.59,4.13,4.13,0,0,0-3.47-1.76A5,5,0,0,0,31.73,127a8.52,8.52,0,0,0-1.48,5.38H25.93a11.51,11.51,0,0,1,2.69-7.93,9.26,9.26,0,0,1,7.3-3,8.74,8.74,0,0,1,6.69,2.6A9.7,9.7,0,0,1,45,131q0,5.27-5.49,12.48l-7.91,10.35H46.36Z" style="fill:#242124"/><path d="M67.53,145.56h4v3.69h-4v8.25H63.21v-8.25H49.78v-2.66L63,122h4.54Zm-13,0h8.64V128.67Z" style="fill:#242124"/><path d="M94.14,131.23A9.39,9.39,0,0,1,93,136a8.66,8.66,0,0,1-3.19,3.25,9,9,0,0,1,3.71,3.5,10,10,0,0,1,1.34,5.19,10.23,10.23,0,0,1-2.6,7.34,10,10,0,0,1-13.79,0,11.37,11.37,0,0,1-1.27-12.57,8.68,8.68,0,0,1,3.63-3.48A8.41,8.41,0,0,1,77.64,136a9.56,9.56,0,0,1-1.15-4.72,10.11,10.11,0,0,1,2.43-7.13,9.11,9.11,0,0,1,12.79,0A10.1,10.1,0,0,1,94.14,131.23ZM90.5,147.81a7.74,7.74,0,0,0-1.44-4.9,4.57,4.57,0,0,0-3.78-1.84,4.45,4.45,0,0,0-3.77,1.86,8,8,0,0,0-1.38,4.88,7.52,7.52,0,0,0,1.35,4.79,5.17,5.17,0,0,0,7.68,0A7.57,7.57,0,0,0,90.5,147.81Zm-.66-16.5a7.22,7.22,0,0,0-1.27-4.42,4,4,0,0,0-6.54,0,7.4,7.4,0,0,0-1.22,4.44,7.12,7.12,0,0,0,1.25,4.42,4.1,4.1,0,0,0,6.57,0A7.25,7.25,0,0,0,89.84,131.3Z" style="fill:#242124"/><path d="M114.75,142.31a7.56,7.56,0,0,1-6.05,3.3,7.17,7.17,0,0,1-6.18-3.27,14.61,14.61,0,0,1-2.29-8.57,14.63,14.63,0,0,1,2.5-8.94,8,8,0,0,1,6.82-3.37,7.93,7.93,0,0,1,7,3.89q2.53,3.89,2.53,10.78v1.34a41.79,41.79,0,0,1-.89,9.57,15.63,15.63,0,0,1-2.62,5.91,11,11,0,0,1-4.42,3.41,17,17,0,0,1-6.71,1.16v-3.83h.76q4.59-.1,7-2.79T114.75,142.31Zm-5.32-.44a4.62,4.62,0,0,0,3.05-1.31,8.65,8.65,0,0,0,2.32-3.43v-1.9a14.89,14.89,0,0,0-1.54-7.21q-1.54-2.79-3.71-2.79a4.19,4.19,0,0,0-3.72,2.31,11.57,11.57,0,0,0-1.38,6,12,12,0,0,0,1.34,6A4.07,4.07,0,0,0,109.42,141.88Z" style="fill:#242124"/><path d="M137.65,157.5V122h10.13q4.86,0,7.31,2.37t2.45,7.1a7.85,7.85,0,0,1-1.25,4.39,8.36,8.36,0,0,1-3.37,3,6.76,6.76,0,0,1,3.87,3,10.06,10.06,0,0,1,1.43,5.47,10.41,10.41,0,0,1-2.62,7.52q-2.62,2.73-7.48,2.73Zm4.47-20.39h5.74a4.83,4.83,0,0,0,3.75-1.57,7.2,7.2,0,0,0,.13-8.43,5.28,5.28,0,0,0-4-1.33h-5.66Zm0,3.76v12.79h6.1a5.12,5.12,0,0,0,4-1.67,6.83,6.83,0,0,0,1.49-4.7q0-6.42-5.42-6.42Z" style="fill:#242124"/><path d="M173.75,158q-4.93,0-7.57-2.94t-2.69-8.63v-3.2q0-5.91,2.58-9.26a8.55,8.55,0,0,1,7.19-3.36q4.64,0,6.93,3t2.34,9.2v2.83H167.8v.61q0,4.25,1.6,6.18a5.64,5.64,0,0,0,4.6,1.93,7.47,7.47,0,0,0,3.36-.72,8.35,8.35,0,0,0,2.72-2.28l2.25,2.73Q179.52,158,173.75,158Zm-.49-23.68a4.53,4.53,0,0,0-4,1.84,10.93,10.93,0,0,0-1.46,5.72h10.4v-.59q-.17-3.76-1.35-5.37A4.18,4.18,0,0,0,173.27,134.31Z" style="fill:#242124"/><path d="M198.63,135.14a10.57,10.57,0,0,0-2-.17q-3.32,0-4.64,3.64v18.9h-4.32V131.08h4.2l.07,2.69a5.38,5.38,0,0,1,4.91-3.17,3.81,3.81,0,0,1,1.71.34Z" style="fill:#242124"/><path d="M207.59,157.5h-4.32V120h4.32Z" style="fill:#242124"/><path d="M219.38,124.08a2.77,2.77,0,0,1-.61,1.83,2.28,2.28,0,0,1-1.86.73,2.25,2.25,0,0,1-1.83-.73,2.76,2.76,0,0,1-.61-1.83,2.86,2.86,0,0,1,.61-1.86,2.59,2.59,0,0,1,3.67,0A2.84,2.84,0,0,1,219.38,124.08ZM219,157.5h-4.32V131.08H219Z" style="fill:#242124"/><path d="M229.91,131.08l.12,2.86a7.71,7.71,0,0,1,6.42-3.34q7,0,7.1,9.35V157.5h-4.3V140.14a7.2,7.2,0,0,0-1-4.41,3.74,3.74,0,0,0-3.11-1.31,4.38,4.38,0,0,0-2.89,1.07,7.73,7.73,0,0,0-2.06,2.81V157.5h-4.32V131.08Z" style="fill:#242124"/></svg>