<svg width="12.926mm" height="28.325mm" version="1.1" viewBox="0 0 12.926 28.325" xmlns="http://www.w3.org/2000/svg">
 <g transform="translate(-75.779 -62.67)" fill="#242124" stroke-dasharray="1.73000001, 1.73000001" stroke-width=".865">
  <path d="m75.779 63.295 1.4788-0.6249 0.18881 0.44681q0.094943 0.22467 0.041278 0.38798-0.051859 0.16404-0.24861 0.24718-0.10155 0.042912-0.20404 0.023393-0.10196-0.018249-0.18588-0.096482 0.017132 0.11843-0.050515 0.22032-0.067647 0.10189-0.19966 0.15768-0.20056 0.084751-0.36214 0.013906-0.16032-0.071382-0.25472-0.29479zm0.76716-0.060888-0.48108 0.2033 0.10996 0.26021q0.048276 0.11424 0.13568 0.14762 0.087408 0.033376 0.1953-0.012218 0.24879-0.10513 0.1517-0.33488zm0.17898-0.075631 0.1046 0.24752q0.043843 0.096667 0.12183 0.13253 0.079793 0.036594 0.18261-0.006855 0.21325-0.090115 0.12465-0.31747l-0.10084-0.23864z" style="font-feature-settings:normal;font-variant-caps:small-caps;font-variant-ligatures:normal;font-variant-numeric:normal;paint-order:stroke fill markers"/>
  <path d="m77.265 64.631 0.82721 0.013966 0.10621 0.25133-1.1488-0.045634-0.52043 0.21992-0.094942-0.22467 0.53566-0.22636 0.75592-0.84154 0.10621 0.25133z" style="font-feature-settings:normal;font-variant-caps:small-caps;font-variant-ligatures:normal;font-variant-numeric:normal;paint-order:stroke fill markers"/>
  <path d="m79.046 65.873-1.3041 1.1196 1.7118-0.15489 0.12659 0.29956-1.8482 0.781-0.098162-0.23229 0.71972-0.30414 0.73011-0.2831-1.6451 0.12519-0.075095-0.17771 1.2323-1.0878-0.70679 0.32411-0.71972 0.30414-0.098162-0.23229 1.8482-0.781z" style="font-feature-settings:normal;font-variant-caps:small-caps;font-variant-ligatures:normal;font-variant-numeric:normal;paint-order:stroke fill markers"/>
  <path d="m78.559 68.887-0.22314-0.52805-0.4035 0.032876-0.096015-0.22721 1.695-0.11336 0.083678 0.19802-1.2658 1.1288-0.09548-0.22594zm-0.005188-0.54684 0.17058 0.40365 0.53088-0.46071z" style="font-feature-settings:normal;font-variant-caps:small-caps;font-variant-ligatures:normal;font-variant-numeric:normal;paint-order:stroke fill markers"/>
  <path d="m79.215 69.836-0.1105-0.26148-0.56994 0.24084-0.094943-0.22467 1.4788-0.62491 0.19418 0.4595q0.098698 0.23356 0.03395 0.40604-0.064749 0.17248-0.28308 0.26474-0.28941 0.1223-0.5041-0.074211l-0.48597 0.55992-0.012695 0.005364-0.10138-0.23991zm0.081173-0.34248 0.098697 0.23356q0.050422 0.11932 0.1492 0.15836 0.099317 0.040312 0.2161-0.009036 0.26656-0.11264 0.15499-0.37667l-0.096016-0.22721z" style="font-feature-settings:normal;font-variant-caps:small-caps;font-variant-ligatures:normal;font-variant-numeric:normal;paint-order:stroke fill markers"/>
  <path d="m79.5 71.068-0.09663 0.072249 0.11662-0.017864 1.2469-0.14694 0.10138 0.2399-1.6837 0.14002-0.08797-0.20817 1.2739-1.1098 0.10192 0.24118z" style="font-feature-settings:normal;font-variant-caps:small-caps;font-variant-ligatures:normal;font-variant-numeric:normal;paint-order:stroke fill markers"/>
  <path d="m79.579 72.288-0.094943-0.22467 1.4788-0.62491 0.094943 0.22467z" style="font-feature-settings:normal;font-variant-caps:small-caps;font-variant-ligatures:normal;font-variant-numeric:normal;paint-order:stroke fill markers"/>
  <path d="m80.169 73.685-0.094406-0.2234 0.85608-1.0754-1.1119 0.46989-0.094407-0.2234 1.4788-0.62491 0.094406 0.2234-0.85735 1.0759 1.1132-0.47042 0.094407 0.2234z" style="font-feature-settings:normal;font-variant-caps:small-caps;font-variant-ligatures:normal;font-variant-numeric:normal;paint-order:stroke fill markers"/>
  <path d="m81.422 75.304-0.26391-0.62452-0.54297 0.060394-0.10084-0.23864 2.0997-0.18567 0.084215 0.19929-1.5961 1.3776-0.10084-0.23864zm-0.037608-0.64835 0.21295 0.50393 0.73356-0.6077z" style="font-feature-settings:normal;font-variant-caps:small-caps;font-variant-ligatures:normal;font-variant-numeric:normal;paint-order:stroke fill markers"/>
  <path d="m81.481 76.253 0.25855 0.61182-0.19167 0.080997-0.35295-0.83523 1.4788-0.62491 0.094405 0.2234z" style="font-feature-settings:normal;font-variant-caps:small-caps;font-variant-ligatures:normal;font-variant-numeric:normal;paint-order:stroke fill markers"/>
  <path d="m82.642 77.673-0.23226-0.54962-0.476 0.20115 0.27142 0.64229-0.19167 0.080997-0.36583-0.8657 1.4788-0.62491 0.36261 0.85808-0.19421 0.082069-0.2682-0.63467-0.42396 0.17916 0.23226 0.54962z" style="font-feature-settings:normal;font-variant-caps:small-caps;font-variant-ligatures:normal;font-variant-numeric:normal;paint-order:stroke fill markers"/>
  <path d="m83.237 78.36 0.67178 0.049729 0.11211 0.2653-0.90855-0.10377-0.5638 0.74391-0.11264-0.26657 0.43788-0.53211-0.68569-0.054327-0.1121-0.26528 0.92426 0.10909 0.55774-0.72639 0.11157 0.26402z" style="font-feature-settings:normal;font-variant-caps:small-caps;font-variant-ligatures:normal;font-variant-numeric:normal;paint-order:stroke fill markers"/>
  <path d="m83.316 80.143-0.22314-0.52805-0.4035 0.032875-0.096013-0.22721 1.695-0.11337 0.083678 0.19802-1.2658 1.1288-0.09548-0.22594zm-0.00519-0.54685 0.17058 0.40366 0.53088-0.46071z" style="font-feature-settings:normal;font-variant-caps:small-caps;font-variant-ligatures:normal;font-variant-numeric:normal;paint-order:stroke fill markers"/>
  <path d="m83.641 81.9-0.094406-0.2234 0.85608-1.0754-1.1119 0.46989-0.094406-0.2234 1.4788-0.62491 0.094405 0.2234-0.85735 1.0759 1.1132-0.47042 0.094405 0.2234z" style="font-feature-settings:normal;font-variant-caps:small-caps;font-variant-ligatures:normal;font-variant-numeric:normal;paint-order:stroke fill markers"/>
  <path d="m83.782 82.234 1.4788-0.62491 0.1636 0.38715q0.11479 0.27164-0.007687 0.51638-0.12194 0.24602-0.44689 0.38334l-0.072352 0.030575q-0.3186 0.13464-0.578 0.048277-0.2576-0.085633-0.37761-0.36254zm1.379-0.31943-1.0929 0.46184 0.062759 0.14851q0.082066 0.1942 0.25338 0.2385 0.17312 0.045025 0.42064-0.059574l0.081238-0.034329q0.24371-0.10299 0.3335-0.25163 0.09105-0.14918 0.010588-0.33958z" style="font-feature-settings:normal;font-variant-caps:small-caps;font-variant-ligatures:normal;font-variant-numeric:normal;paint-order:stroke fill markers"/>
  <path d="m85.317 84.004-0.23226-0.54962-0.476 0.20115 0.27142 0.64229-0.19167 0.080997-0.36583-0.8657 1.4788-0.62491 0.36261 0.85808-0.19421 0.08207-0.2682-0.63467-0.42396 0.17916 0.23226 0.54962z" style="font-feature-settings:normal;font-variant-caps:small-caps;font-variant-ligatures:normal;font-variant-numeric:normal;paint-order:stroke fill markers"/>
  <path d="m85.57 84.875-0.1105-0.26148-0.56994 0.24084-0.094942-0.22467 1.4788-0.62491 0.19418 0.4595q0.098699 0.23356 0.033951 0.40604-0.064748 0.17248-0.28308 0.26474-0.28941 0.1223-0.5041-0.07421l-0.48597 0.55991-0.012694 0.005364-0.10138-0.23991zm0.081173-0.34248 0.098699 0.23356q0.05042 0.11931 0.1492 0.15835 0.099319 0.040319 0.2161-0.009029 0.26656-0.11264 0.15499-0.37667l-0.096017-0.22722z" style="font-feature-settings:normal;font-variant-caps:small-caps;font-variant-ligatures:normal;font-variant-numeric:normal;paint-order:stroke fill markers"/>
  <path d="m86.556 86.713-0.13732-0.32495-0.74764 0.31594-0.098699-0.23356 1.8482-0.781 0.21885 0.51789q0.11479 0.27164 0.031631 0.47135-0.081894 0.19917-0.3548 0.31449-0.17136 0.072414-0.33175 0.050431-0.15858-0.021257-0.28179-0.13225l-0.63446 0.68998-0.015233 0.006437-0.10567-0.25006zm0.06197-0.40916 0.11908 0.28179q0.061685 0.14597 0.19209 0.1926 0.13094 0.047887 0.28834-0.018626 0.35542-0.15019 0.21917-0.47261l-0.118-0.27925z" style="font-feature-settings:normal;font-variant-caps:small-caps;font-variant-ligatures:normal;font-variant-numeric:normal;paint-order:stroke fill markers"/>
  <path d="m88.029 88.16-0.9977 0.42161q-0.22701 0.092946-0.42223 0.016864-0.19395-0.076628-0.28889-0.3013-0.09548-0.22594-0.01852-0.41554 0.07696-0.1896 0.31072-0.29138l0.9977-0.42161 0.093335 0.22087-0.99009 0.41839q-0.15359 0.064904-0.2066 0.16958-0.0512 0.10541 0.005121 0.23869 0.052569 0.1244 0.15984 0.16584 0.10854 0.040897 0.27228-0.028299l0.99009-0.41839zm-0.083424-1.0329q0.05712-0.024138 0.10968-0.005955 0.054367 0.018909 0.083335 0.08746 0.028964 0.068541 0.004632 0.12071-0.02306 0.051638-0.08018 0.075776t-0.11022 0.004684q-0.053098-0.019445-0.082062-0.087987-0.028968-0.06855-0.005905-0.12018 0.023596-0.050367 0.080717-0.074505zm0.22811 0.54689q0.05712-0.024138 0.11095-0.006491 0.054367 0.018909 0.083335 0.087459 0.028964 0.068542 0.004636 0.12072-0.024333 0.052166-0.081453 0.076304t-0.11022 0.004693q-0.053102-0.019454-0.082066-0.087996-0.028968-0.06855-0.005905-0.12018 0.023596-0.050367 0.080717-0.074505z" style="font-feature-settings:normal;font-variant-caps:small-caps;font-variant-ligatures:normal;font-variant-numeric:normal;paint-order:stroke fill markers"/>
  <path d="m86.965 89.231 0.25855 0.61182-0.19167 0.080997-0.35295-0.83523 1.4788-0.62491 0.094405 0.2234z" style="font-feature-settings:normal;font-variant-caps:small-caps;font-variant-ligatures:normal;font-variant-numeric:normal;paint-order:stroke fill markers"/>
  <path d="m87.417 90.302 0.25855 0.61182-0.19167 0.080997-0.35295-0.83523 1.4788-0.62491 0.094405 0.2234z" style="font-feature-settings:normal;font-variant-caps:small-caps;font-variant-ligatures:normal;font-variant-numeric:normal;paint-order:stroke fill markers"/>
 </g>
</svg>
